%TF.GenerationSoftware,KiCad,Pcbnew,6.0.10-86aedd382b~118~ubuntu22.04.1*%
%TF.CreationDate,2023-02-06T10:04:39-03:00*%
%TF.ProjectId,MB_V2,4d425f56-322e-46b6-9963-61645f706362,1*%
%TF.SameCoordinates,Original*%
%TF.FileFunction,Soldermask,Top*%
%TF.FilePolarity,Negative*%
%FSLAX46Y46*%
G04 Gerber Fmt 4.6, Leading zero omitted, Abs format (unit mm)*
G04 Created by KiCad (PCBNEW 6.0.10-86aedd382b~118~ubuntu22.04.1) date 2023-02-06 10:04:39*
%MOMM*%
%LPD*%
G01*
G04 APERTURE LIST*
G04 Aperture macros list*
%AMRoundRect*
0 Rectangle with rounded corners*
0 $1 Rounding radius*
0 $2 $3 $4 $5 $6 $7 $8 $9 X,Y pos of 4 corners*
0 Add a 4 corners polygon primitive as box body*
4,1,4,$2,$3,$4,$5,$6,$7,$8,$9,$2,$3,0*
0 Add four circle primitives for the rounded corners*
1,1,$1+$1,$2,$3*
1,1,$1+$1,$4,$5*
1,1,$1+$1,$6,$7*
1,1,$1+$1,$8,$9*
0 Add four rect primitives between the rounded corners*
20,1,$1+$1,$2,$3,$4,$5,0*
20,1,$1+$1,$4,$5,$6,$7,0*
20,1,$1+$1,$6,$7,$8,$9,0*
20,1,$1+$1,$8,$9,$2,$3,0*%
G04 Aperture macros list end*
%TA.AperFunction,Profile*%
%ADD10C,0.100000*%
%TD*%
%ADD11R,1.700000X1.700000*%
%ADD12O,1.700000X1.700000*%
%ADD13R,1.400000X1.600000*%
%ADD14C,0.900000*%
%ADD15R,0.500000X2.500000*%
%ADD16R,2.000000X2.500000*%
%ADD17R,1.750000X0.450000*%
%ADD18RoundRect,0.218750X0.256250X-0.218750X0.256250X0.218750X-0.256250X0.218750X-0.256250X-0.218750X0*%
%ADD19RoundRect,0.140000X-0.140000X-0.170000X0.140000X-0.170000X0.140000X0.170000X-0.140000X0.170000X0*%
%ADD20RoundRect,0.225000X-0.250000X0.225000X-0.250000X-0.225000X0.250000X-0.225000X0.250000X0.225000X0*%
%ADD21RoundRect,0.200000X0.200000X0.275000X-0.200000X0.275000X-0.200000X-0.275000X0.200000X-0.275000X0*%
%ADD22RoundRect,0.200000X-0.275000X0.200000X-0.275000X-0.200000X0.275000X-0.200000X0.275000X0.200000X0*%
%ADD23RoundRect,0.140000X0.140000X0.170000X-0.140000X0.170000X-0.140000X-0.170000X0.140000X-0.170000X0*%
%ADD24RoundRect,0.225000X0.225000X0.250000X-0.225000X0.250000X-0.225000X-0.250000X0.225000X-0.250000X0*%
%ADD25R,0.900000X1.200000*%
%ADD26RoundRect,0.250000X-0.375000X-0.850000X0.375000X-0.850000X0.375000X0.850000X-0.375000X0.850000X0*%
%ADD27C,0.254000*%
%ADD28RoundRect,0.225000X-0.225000X-0.250000X0.225000X-0.250000X0.225000X0.250000X-0.225000X0.250000X0*%
%ADD29RoundRect,0.218750X0.218750X0.256250X-0.218750X0.256250X-0.218750X-0.256250X0.218750X-0.256250X0*%
%ADD30RoundRect,0.200000X-0.200000X-0.275000X0.200000X-0.275000X0.200000X0.275000X-0.200000X0.275000X0*%
%ADD31R,1.200000X0.900000*%
%ADD32R,0.254800X0.807999*%
%ADD33R,0.690000X0.280000*%
%ADD34R,2.273000X4.600000*%
%ADD35RoundRect,0.218750X-0.218750X-0.256250X0.218750X-0.256250X0.218750X0.256250X-0.218750X0.256250X0*%
%ADD36R,0.350012X0.350012*%
%ADD37R,0.350000X0.300000*%
%ADD38R,0.300000X0.350000*%
%ADD39R,0.599999X0.599999*%
%ADD40R,0.429997X0.429997*%
%ADD41R,0.406400X0.838200*%
%ADD42RoundRect,0.125000X0.200000X0.125000X-0.200000X0.125000X-0.200000X-0.125000X0.200000X-0.125000X0*%
%ADD43R,3.400000X4.300000*%
G04 APERTURE END LIST*
D10*
X132000000Y-105200000D02*
X151900000Y-105200000D01*
X151900000Y-105200000D02*
X151900000Y-131200000D01*
X151900000Y-131200000D02*
X132000000Y-131200000D01*
X132000000Y-131200000D02*
X132000000Y-105200000D01*
X94000000Y-105000000D02*
X131000000Y-105000000D01*
X131000000Y-105000000D02*
X131000000Y-178000000D01*
X131000000Y-178000000D02*
X94000000Y-178000000D01*
X94000000Y-178000000D02*
X94000000Y-105000000D01*
D11*
%TO.C,J8*%
X112580000Y-175410000D03*
D12*
X110040000Y-175410000D03*
%TD*%
D13*
%TO.C,SW3*%
X107380000Y-139430000D03*
X107380000Y-146630000D03*
X110380000Y-146630000D03*
X110380000Y-139430000D03*
%TD*%
D14*
%TO.C,J4*%
X103200000Y-171250000D03*
X98800000Y-171250000D03*
D15*
X99400000Y-168650000D03*
X100200000Y-168650000D03*
X101000000Y-168650000D03*
X101800000Y-168650000D03*
X102600000Y-168650000D03*
D16*
X96600000Y-174150000D03*
X105400000Y-168650000D03*
X105400000Y-174150000D03*
X96600000Y-168650000D03*
%TD*%
D17*
%TO.C,U3*%
X113320000Y-138135000D03*
X113320000Y-138785000D03*
X113320000Y-139435000D03*
X113320000Y-140085000D03*
X113320000Y-140735000D03*
X113320000Y-141385000D03*
X113320000Y-142035000D03*
X113320000Y-142685000D03*
X113320000Y-143335000D03*
X113320000Y-143985000D03*
X113320000Y-144635000D03*
X113320000Y-145285000D03*
X113320000Y-145935000D03*
X113320000Y-146585000D03*
X120520000Y-146585000D03*
X120520000Y-145935000D03*
X120520000Y-145285000D03*
X120520000Y-144635000D03*
X120520000Y-143985000D03*
X120520000Y-143335000D03*
X120520000Y-142685000D03*
X120520000Y-142035000D03*
X120520000Y-141385000D03*
X120520000Y-140735000D03*
X120520000Y-140085000D03*
X120520000Y-139435000D03*
X120520000Y-138785000D03*
X120520000Y-138135000D03*
%TD*%
D18*
%TO.C,D2*%
X108050000Y-122547500D03*
X108050000Y-120972500D03*
%TD*%
D19*
%TO.C,C6*%
X98020000Y-165050000D03*
X98980000Y-165050000D03*
%TD*%
D20*
%TO.C,C1*%
X145560000Y-108665000D03*
X145560000Y-110215000D03*
%TD*%
D21*
%TO.C,R9*%
X108685000Y-148610000D03*
X107035000Y-148610000D03*
%TD*%
D22*
%TO.C,R1*%
X109850000Y-124100000D03*
X109850000Y-125750000D03*
%TD*%
D23*
%TO.C,C12*%
X108600000Y-167260000D03*
X107640000Y-167260000D03*
%TD*%
D24*
%TO.C,C9*%
X108410000Y-165920000D03*
X106860000Y-165920000D03*
%TD*%
D25*
%TO.C,D8*%
X100150000Y-161500000D03*
X96850000Y-161500000D03*
%TD*%
D26*
%TO.C,L2*%
X111600000Y-164810000D03*
X113750000Y-164810000D03*
%TD*%
D19*
%TO.C,C11*%
X110260000Y-167350000D03*
X111220000Y-167350000D03*
%TD*%
D20*
%TO.C,C5*%
X122800000Y-143425000D03*
X122800000Y-144975000D03*
%TD*%
D11*
%TO.C,J7*%
X127920000Y-120900000D03*
D12*
X125380000Y-120900000D03*
X127920000Y-123440000D03*
X125380000Y-123440000D03*
X127920000Y-125980000D03*
X125380000Y-125980000D03*
X127920000Y-128520000D03*
X125380000Y-128520000D03*
X127920000Y-131060000D03*
X125380000Y-131060000D03*
X127920000Y-133600000D03*
X125380000Y-133600000D03*
%TD*%
D23*
%TO.C,C10*%
X111230000Y-170730000D03*
X110270000Y-170730000D03*
%TD*%
D18*
%TO.C,D5*%
X113230000Y-122547500D03*
X113230000Y-120972500D03*
%TD*%
%TO.C,D1*%
X109790000Y-122537500D03*
X109790000Y-120962500D03*
%TD*%
D27*
%TO.C,U7*%
X109700000Y-168750000D03*
X110100000Y-168750000D03*
X110500000Y-168750000D03*
X110900000Y-168750000D03*
X111300000Y-168750000D03*
X109700000Y-169150000D03*
X110100000Y-169150000D03*
X110500000Y-169150000D03*
X110900000Y-169150000D03*
X111300000Y-169150000D03*
X109700000Y-169550000D03*
X110100000Y-169550000D03*
X110500000Y-169550000D03*
X110900000Y-169550000D03*
X111300000Y-169550000D03*
%TD*%
D23*
%TO.C,C13*%
X108550000Y-169600000D03*
X107590000Y-169600000D03*
%TD*%
D13*
%TO.C,SW1*%
X110650000Y-160125000D03*
X110650000Y-152925000D03*
X107650000Y-160125000D03*
X107650000Y-152925000D03*
%TD*%
D28*
%TO.C,C2*%
X107740000Y-151040000D03*
X109290000Y-151040000D03*
%TD*%
D21*
%TO.C,R8*%
X112790000Y-162020000D03*
X111140000Y-162020000D03*
%TD*%
D14*
%TO.C,J3*%
X121900000Y-171200000D03*
X126300000Y-171200000D03*
D15*
X122500000Y-168600000D03*
X123300000Y-168600000D03*
X124100000Y-168600000D03*
X124900000Y-168600000D03*
X125700000Y-168600000D03*
D16*
X119700000Y-168600000D03*
X128500000Y-174100000D03*
X119700000Y-174100000D03*
X128500000Y-168600000D03*
%TD*%
D29*
%TO.C,D10*%
X117960000Y-135940000D03*
X116385000Y-135940000D03*
%TD*%
D30*
%TO.C,R10*%
X113250000Y-150900000D03*
X114900000Y-150900000D03*
%TD*%
D11*
%TO.C,J2*%
X149900000Y-107200000D03*
D12*
X149900000Y-109740000D03*
X149900000Y-112280000D03*
X149900000Y-114820000D03*
X149900000Y-117360000D03*
%TD*%
D22*
%TO.C,R5*%
X113030000Y-124140000D03*
X113030000Y-125790000D03*
%TD*%
D29*
%TO.C,D11*%
X117977500Y-134290000D03*
X116402500Y-134290000D03*
%TD*%
D31*
%TO.C,D9*%
X119300000Y-158500000D03*
X119300000Y-161800000D03*
%TD*%
D22*
%TO.C,R2*%
X108210000Y-124085000D03*
X108210000Y-125735000D03*
%TD*%
%TO.C,R4*%
X114960000Y-124095000D03*
X114960000Y-125745000D03*
%TD*%
D28*
%TO.C,C17*%
X117327500Y-165262500D03*
X118877500Y-165262500D03*
%TD*%
D30*
%TO.C,R6*%
X119465000Y-135920000D03*
X121115000Y-135920000D03*
%TD*%
%TO.C,R7*%
X119455000Y-134360000D03*
X121105000Y-134360000D03*
%TD*%
D22*
%TO.C,R3*%
X111420000Y-124015000D03*
X111420000Y-125665000D03*
%TD*%
D11*
%TO.C,J6*%
X99470000Y-135570000D03*
D12*
X96930000Y-135570000D03*
X99470000Y-138110000D03*
X96930000Y-138110000D03*
X99470000Y-140650000D03*
X96930000Y-140650000D03*
X99470000Y-143190000D03*
X96930000Y-143190000D03*
X99470000Y-145730000D03*
X96930000Y-145730000D03*
X99470000Y-148270000D03*
X96930000Y-148270000D03*
X99470000Y-150810000D03*
X96930000Y-150810000D03*
X99470000Y-153350000D03*
X96930000Y-153350000D03*
X99470000Y-155890000D03*
X96930000Y-155890000D03*
X99470000Y-158430000D03*
X96930000Y-158430000D03*
%TD*%
D20*
%TO.C,C14*%
X117000000Y-167230000D03*
X117000000Y-168780000D03*
%TD*%
D18*
%TO.C,D4*%
X114980000Y-122587500D03*
X114980000Y-121012500D03*
%TD*%
D32*
%TO.C,U6*%
X101674999Y-164729300D03*
X101175000Y-164729300D03*
X100675001Y-164729300D03*
X100675001Y-166070700D03*
X101175000Y-166070700D03*
X101674999Y-166070700D03*
%TD*%
D13*
%TO.C,SW2*%
X116320000Y-152840000D03*
X116320000Y-160040000D03*
X113320000Y-152840000D03*
X113320000Y-160040000D03*
%TD*%
D28*
%TO.C,C18*%
X117312500Y-163602500D03*
X118862500Y-163602500D03*
%TD*%
D11*
%TO.C,J5*%
X128190000Y-154600000D03*
D12*
X125650000Y-154600000D03*
X128190000Y-157140000D03*
X125650000Y-157140000D03*
X128190000Y-159680000D03*
X125650000Y-159680000D03*
X128190000Y-162220000D03*
X125650000Y-162220000D03*
X128190000Y-164760000D03*
X125650000Y-164760000D03*
%TD*%
D20*
%TO.C,C16*%
X113920000Y-167215000D03*
X113920000Y-168765000D03*
%TD*%
%TO.C,C15*%
X115440000Y-167215000D03*
X115440000Y-168765000D03*
%TD*%
D33*
%TO.C,U1*%
X140195000Y-109060000D03*
X140195000Y-109560000D03*
X140195000Y-110060000D03*
X140195000Y-110560000D03*
X140195000Y-111060000D03*
X140195000Y-111560000D03*
X140195000Y-112060000D03*
X143685000Y-112060000D03*
X143685000Y-111560000D03*
X143685000Y-111060000D03*
X143685000Y-110560000D03*
X143685000Y-110060000D03*
X143685000Y-109560000D03*
X143685000Y-109060000D03*
D34*
X141940000Y-110660000D03*
%TD*%
D35*
%TO.C,D12*%
X110322500Y-148620000D03*
X111897500Y-148620000D03*
%TD*%
D36*
%TO.C,U2*%
X97825000Y-109924999D03*
D37*
X97825000Y-110399999D03*
X97825000Y-110850000D03*
X97825000Y-111299999D03*
X97825000Y-111749999D03*
X97825000Y-112200000D03*
X97825000Y-112649999D03*
X97825000Y-113100001D03*
X97825000Y-113550000D03*
X97825000Y-113999999D03*
X97825000Y-114450001D03*
X97825000Y-114900000D03*
X97825000Y-115350001D03*
X97825000Y-115800001D03*
X97825000Y-116250000D03*
X97825000Y-116700001D03*
D36*
X97825000Y-117175002D03*
D38*
X98300000Y-117175002D03*
X98749999Y-117175002D03*
X99199999Y-117175002D03*
X99650000Y-117175002D03*
X100099999Y-117175002D03*
X100550001Y-117175002D03*
X101000000Y-117175002D03*
X101449999Y-117175002D03*
X101900001Y-117175002D03*
X102350000Y-117175002D03*
X102800001Y-117175002D03*
X103250001Y-117175002D03*
X103700000Y-117175002D03*
D36*
X104175000Y-117175002D03*
D37*
X104175000Y-116700001D03*
X104175000Y-116250000D03*
X104175000Y-115800001D03*
X104175000Y-115350001D03*
X104175000Y-114900000D03*
X104175000Y-114450001D03*
X104175000Y-113999999D03*
X104175000Y-113550000D03*
X104175000Y-113100001D03*
X104175000Y-112649999D03*
X104175000Y-112200000D03*
X104175000Y-111749999D03*
X104175000Y-111299999D03*
X104175000Y-110850000D03*
X104175000Y-110399999D03*
D36*
X104175000Y-109924999D03*
D38*
X103700000Y-109924998D03*
X103250001Y-109924998D03*
X102800001Y-109924998D03*
X102350000Y-109924998D03*
X101900001Y-109924998D03*
X101449999Y-109924998D03*
X101000000Y-109924998D03*
X100550001Y-109924998D03*
X100099999Y-109924998D03*
X99650000Y-109924998D03*
X99199999Y-109924998D03*
X98749999Y-109924998D03*
X98300000Y-109924998D03*
D39*
X99650000Y-111299999D03*
X99650000Y-112199999D03*
X99650000Y-113099999D03*
X99650000Y-113999999D03*
X99650000Y-114899999D03*
X99650000Y-115799999D03*
X100550000Y-115799999D03*
X101450000Y-115799999D03*
X102350000Y-115799999D03*
X102350000Y-114899999D03*
X102350000Y-113999999D03*
X102350000Y-113099999D03*
X102350000Y-112199999D03*
X102350000Y-111299999D03*
X101450000Y-111299999D03*
X100550000Y-111299999D03*
X100550000Y-112199999D03*
X100550000Y-113099999D03*
X100550000Y-113999999D03*
X100550000Y-114899999D03*
X101450000Y-114899999D03*
X101450000Y-113999999D03*
X101450000Y-113099999D03*
X101450000Y-112199999D03*
D40*
X97950000Y-106964999D03*
X104050000Y-106964999D03*
%TD*%
D41*
%TO.C,D6*%
X98900000Y-163600000D03*
X97858600Y-163600000D03*
%TD*%
D18*
%TO.C,D3*%
X111520000Y-122547500D03*
X111520000Y-120972500D03*
%TD*%
D11*
%TO.C,J1*%
X133975000Y-124975000D03*
D12*
X133975000Y-122435000D03*
X133975000Y-119895000D03*
X133975000Y-117355000D03*
X133975000Y-114815000D03*
X133975000Y-112275000D03*
X133975000Y-109735000D03*
X133975000Y-107195000D03*
%TD*%
D28*
%TO.C,C4*%
X106175000Y-136930000D03*
X107725000Y-136930000D03*
%TD*%
D42*
%TO.C,U5*%
X114990000Y-134605000D03*
X114990000Y-133335000D03*
X114990000Y-132065000D03*
X114990000Y-130795000D03*
X107490000Y-130795000D03*
X107490000Y-132065000D03*
X107490000Y-133335000D03*
X107490000Y-134605000D03*
D43*
X111240000Y-132700000D03*
%TD*%
M02*
